<?xml version="1.0" standalone="no"?><!DOCTYPE svg PUBLIC "-//W3C//DTD SVG 1.1//EN" "http://www.w3.org/Graphics/SVG/1.1/DTD/svg11.dtd"><svg t="1618543605999" class="icon" viewBox="0 0 1024 1024" version="1.1" xmlns="http://www.w3.org/2000/svg" p-id="1730" xmlns:xlink="http://www.w3.org/1999/xlink" width="16" height="16"><defs><style type="text/css"></style></defs><path d="M336 704m-128 0a128 128 0 1 0 256 0 128 128 0 1 0-256 0Z" fill="#FDAFA4" p-id="1731"></path><path d="M720 704m-128 0a128 128 0 1 0 256 0 128 128 0 1 0-256 0Z" fill="#FDAFA4" p-id="1732"></path><path d="M283.232 596.032a127.232 127.232 0 0 1 50.176-18.688L304.848 823.04a128.16 128.16 0 0 1-44.544-29.744l22.928-197.28zM667.232 596.032a127.232 127.232 0 0 1 50.176-18.688L688.848 823.04a128.16 128.16 0 0 1-44.544-29.744l22.928-197.28z" fill="#FFFFFF" p-id="1733"></path><path d="M512 416c134.48 0 214.432 29.248 323.232 81.936 15.2 7.36 9.872 30.064-7.008 30.064H195.776c-16.88 0-22.208-22.704-7.008-30.064C297.568 445.248 377.52 416 512 416zM380.432 213.36a16 16 0 0 1 22.944-11.68l59.6 29.808a48 48 0 0 0 35.264 3.04l124.368-37.312a16 16 0 0 1 20.384 12.704l25.904 155.456A16 16 0 0 1 653.12 384H370.88a16 16 0 0 1-15.776-18.624l25.328-152z" fill="#0F277F" p-id="1734"></path></svg>