<?xml version="1.0" standalone="no"?><!DOCTYPE svg PUBLIC "-//W3C//DTD SVG 1.1//EN" "http://www.w3.org/Graphics/SVG/1.1/DTD/svg11.dtd"><svg class="icon" width="64px" height="32.00px" viewBox="0 0 2048 1024" version="1.1" xmlns="http://www.w3.org/2000/svg"><path fill="#D90B5A" d="M0 0m407.25373 0l814.507459 0q407.25373 0 407.25373 407.25373l0 0q0 407.25373-407.25373 407.25373l-814.507459 0q-407.25373 0-407.25373-407.25373l0 0q0-407.25373 407.25373-407.25373ZM1221.761189 407.25373m-325.802983 0a325.802984 325.802984 0 1 0 651.605967 0 325.802984 325.802984 0 1 0-651.605967 0ZM1407.713242 294.648074a32.580298 32.580298 0 0 1 0 46.060396l-195.48179 195.481791a32.580298 32.580298 0 0 1-46.101122 0l-97.740895-97.740895a32.580298 32.580298 0 0 1 46.101122-46.060397l74.690334 74.690334 172.431229-172.431229a32.580298 32.580298 0 0 1 46.101122 0z" /></svg>