<?xml version="1.0" standalone="no"?><!DOCTYPE svg PUBLIC "-//W3C//DTD SVG 1.1//EN" "http://www.w3.org/Graphics/SVG/1.1/DTD/svg11.dtd"><svg t="1621761106831" class="icon" viewBox="0 0 1024 1024" version="1.1" xmlns="http://www.w3.org/2000/svg" p-id="4329" width="24" height="24" xmlns:xlink="http://www.w3.org/1999/xlink"><defs><style type="text/css"></style></defs><path d="M696.4 926H237.3c-67.5 0-122.4-54.9-122.4-122.4V221c0-67.5 54.9-122.4 122.4-122.4h459.1c67.5 0 122.4 54.9 122.4 122.4v67.6c0 14-11.3 25.3-25.3 25.3s-25.3-11.3-25.3-25.3V221c0-39.6-32.2-71.8-71.8-71.8H237.3c-39.6 0-71.8 32.2-71.8 71.8v582.7c0 39.6 32.2 71.8 71.8 71.8h459.1c39.6 0 71.8-32.2 71.8-71.8v-85.2c0-14 11.3-25.3 25.3-25.3s25.3 11.3 25.3 25.3v85.2c0 67.4-54.9 122.3-122.4 122.3z" p-id="4330" fill="#707070"></path><path d="M734.2 685.1c-6.5 0-12.9-2.5-17.9-7.4-9.9-9.9-9.9-25.9 0-35.8L846 512.3 716.3 382.6c-9.9-9.9-9.9-25.9 0-35.8 9.9-9.9 25.9-9.9 35.8 0l147.6 147.6c9.9 9.9 9.9 25.9 0 35.8L752.1 677.7c-5 5-11.4 7.4-17.9 7.4z" p-id="4331" fill="#707070"></path><path d="M876.7 537.6h-507c-14 0-25.3-11.3-25.3-25.3s11.3-25.3 25.3-25.3h507c14 0 25.3 11.3 25.3 25.3s-11.3 25.3-25.3 25.3z" p-id="4332" fill="#707070"></path></svg>